<svg width="15" height="15" viewBox="0 0 15 15" fill="none" xmlns="http://www.w3.org/2000/svg">
<g id="Group">
<path id="Vector" fill-rule="evenodd" clip-rule="evenodd" d="M4.20462 0.0429242C4.9675 0.00780438 5.21073 0 7.15403 0C9.09732 0 9.34056 0.00845475 10.1028 0.0429242C10.865 0.0773936 11.3853 0.199012 11.8406 0.375261C12.3173 0.555413 12.7498 0.837021 13.1075 1.20123C13.4717 1.55828 13.7526 1.99012 13.9321 2.46749C14.109 2.92275 14.23 3.44304 14.2651 4.20397C14.3002 4.96815 14.3081 5.21138 14.3081 7.15403C14.3081 9.09732 14.2996 9.34056 14.2651 10.1034C14.2307 10.8644 14.109 11.3847 13.9321 11.8399C13.7526 12.3173 13.4712 12.7499 13.1075 13.1075C12.7498 13.4717 12.3173 13.7526 11.8406 13.9321C11.3853 14.109 10.865 14.23 10.1041 14.2651C9.34056 14.3002 9.09732 14.3081 7.15403 14.3081C5.21073 14.3081 4.9675 14.2996 4.20462 14.2651C3.44369 14.2307 2.9234 14.109 2.46814 13.9321C1.99072 13.7526 1.55816 13.4712 1.20058 13.1075C0.836618 12.7502 0.554967 12.3179 0.375261 11.8406C0.199012 11.3853 0.0780439 10.865 0.0429242 10.1041C0.00780438 9.33991 0 9.09667 0 7.15403C0 5.21073 0.00845475 4.9675 0.0429242 4.20527C0.0773936 3.44304 0.199012 2.92275 0.375261 2.46749C0.555232 1.99017 0.837098 1.55783 1.20123 1.20058C1.5583 0.836697 1.99043 0.555051 2.46749 0.375261C2.92275 0.199012 3.44304 0.0780439 4.20397 0.0429242H4.20462ZM10.0449 1.33065C9.29048 1.29618 9.06415 1.28903 7.15403 1.28903C5.2439 1.28903 5.01757 1.29618 4.26315 1.33065C3.56531 1.36252 3.18679 1.47893 2.93445 1.57714C2.60081 1.70721 2.36213 1.86135 2.11174 2.11174C1.87438 2.34265 1.69172 2.62376 1.57714 2.93445C1.47893 3.18679 1.36252 3.56531 1.33065 4.26315C1.29618 5.01757 1.28903 5.2439 1.28903 7.15403C1.28903 9.06415 1.29618 9.29048 1.33065 10.0449C1.36252 10.7427 1.47893 11.1213 1.57714 11.3736C1.6916 11.6838 1.87436 11.9654 2.11174 12.1963C2.34262 12.4337 2.62423 12.6165 2.93445 12.7309C3.18679 12.8291 3.56531 12.9455 4.26315 12.9774C5.01757 13.0119 5.24325 13.019 7.15403 13.019C9.0648 13.019 9.29048 13.0119 10.0449 12.9774C10.7427 12.9455 11.1213 12.8291 11.3736 12.7309C11.7072 12.6008 11.9459 12.4467 12.1963 12.1963C12.4337 11.9654 12.6165 11.6838 12.7309 11.3736C12.8291 11.1213 12.9455 10.7427 12.9774 10.0449C13.0119 9.29048 13.019 9.06415 13.019 7.15403C13.019 5.2439 13.0119 5.01757 12.9774 4.26315C12.9455 3.56531 12.8291 3.18679 12.7309 2.93445C12.6008 2.60081 12.4467 2.36213 12.1963 2.11174C11.9654 1.8744 11.6843 1.69174 11.3736 1.57714C11.1213 1.47893 10.7427 1.36252 10.0449 1.33065ZM6.24026 9.35942C6.75058 9.57185 7.31882 9.60052 7.84792 9.44053C8.37703 9.28055 8.83418 8.94183 9.14129 8.48223C9.44841 8.02264 9.58643 7.47067 9.5318 6.92061C9.47716 6.37056 9.23325 5.85653 8.84173 5.46633C8.59214 5.2169 8.29035 5.02591 7.9581 4.90711C7.62584 4.78831 7.27137 4.74466 6.92022 4.77929C6.56906 4.81393 6.22996 4.92599 5.92731 5.10741C5.62466 5.28883 5.366 5.5351 5.16996 5.82848C4.97391 6.12187 4.84535 6.45507 4.79353 6.8041C4.74172 7.15314 4.76793 7.50932 4.87029 7.847C4.97265 8.18469 5.14861 8.49548 5.3855 8.757C5.62239 9.01852 5.91432 9.22426 6.24026 9.35942ZM4.55386 4.55386C4.89532 4.2124 5.30069 3.94155 5.74683 3.75675C6.19297 3.57195 6.67113 3.47684 7.15403 3.47684C7.63692 3.47684 8.11509 3.57195 8.56122 3.75675C9.00736 3.94155 9.41273 4.2124 9.75419 4.55386C10.0956 4.89532 10.3665 5.30069 10.5513 5.74683C10.7361 6.19297 10.8312 6.67113 10.8312 7.15403C10.8312 7.63692 10.7361 8.11509 10.5513 8.56122C10.3665 9.00736 10.0956 9.41273 9.75419 9.75419C9.06458 10.4438 8.12928 10.8312 7.15403 10.8312C6.17878 10.8312 5.24347 10.4438 4.55386 9.75419C3.86426 9.06458 3.47684 8.12928 3.47684 7.15403C3.47684 6.17878 3.86426 5.24347 4.55386 4.55386ZM11.6468 4.02447C11.7314 3.94465 11.7991 3.84866 11.846 3.74219C11.8928 3.63572 11.9178 3.52093 11.9195 3.40462C11.9212 3.28831 11.8996 3.17284 11.8558 3.06505C11.8121 2.95726 11.7472 2.85934 11.6649 2.77709C11.5827 2.69484 11.4848 2.62992 11.377 2.58619C11.2692 2.54246 11.1537 2.5208 11.0374 2.5225C10.9211 2.52419 10.8063 2.54921 10.6998 2.59606C10.5934 2.64292 10.4974 2.71066 10.4176 2.79527C10.2623 2.95984 10.1773 3.17842 10.1806 3.40462C10.1839 3.63082 10.2753 3.84684 10.4352 4.0068C10.5952 4.16677 10.8112 4.2581 11.0374 4.26139C11.2636 4.26469 11.4822 4.1797 11.6468 4.02447Z" fill="#353535"/>
</g>
</svg>
