<svg width="19" height="17" viewBox="0 0 19 17" fill="none" xmlns="http://www.w3.org/2000/svg">
<g id="Group 29">
<path id="Vector" d="M18.9288 15.754L15.1116 6.8475C15.0411 6.68302 14.9215 6.5424 14.768 6.44345C14.6144 6.34451 14.4339 6.29169 14.2491 6.29169C14.0644 6.29169 13.8838 6.34451 13.7303 6.44345C13.5768 6.5424 13.4572 6.68302 13.3867 6.8475L9.56944 15.754C9.52198 15.8632 9.49738 15.9804 9.49707 16.0988C9.49676 16.2172 9.52074 16.3345 9.56764 16.444C9.61453 16.5534 9.68342 16.6529 9.77033 16.7366C9.85725 16.8204 9.96048 16.8867 10.0741 16.9319C10.1877 16.9771 10.3095 17.0002 10.4324 16.9999C10.5553 16.9996 10.677 16.976 10.7904 16.9302C10.9038 16.8845 11.0067 16.8177 11.0932 16.7336C11.1797 16.6494 11.2481 16.5497 11.2944 16.44L12.0718 14.6264H16.4264L17.2039 16.44C17.2743 16.6045 17.394 16.7452 17.5475 16.8442C17.7011 16.9432 17.8818 16.9961 18.0666 16.996C18.2199 16.9959 18.3708 16.9595 18.506 16.8898C18.6412 16.8202 18.7566 16.7195 18.8418 16.5967C18.927 16.4739 18.9794 16.3328 18.9946 16.1858C19.0097 16.0388 18.9869 15.8905 18.9284 15.754H18.9288ZM12.8425 12.8288L14.2493 9.54601L15.6562 12.8288H12.8425Z" fill="#353535"/>
<path id="Vector_2" d="M10.0028 12.0491C10.1478 11.8563 10.2073 11.6158 10.1685 11.3807C10.1296 11.1455 9.9954 10.9348 9.7954 10.7949C9.78691 10.7887 9.15919 10.3401 8.24773 9.37595C9.92942 7.18282 10.882 4.68777 11.2705 3.51358H12.6392C12.8867 3.51358 13.124 3.41889 13.299 3.25032C13.474 3.08176 13.5723 2.85314 13.5723 2.61476C13.5723 2.37638 13.474 2.14776 13.299 1.97919C13.124 1.81063 12.8867 1.71594 12.6392 1.71594H7.71926V0.898823C7.71926 0.660441 7.62095 0.431821 7.44596 0.263259C7.27097 0.0946971 7.03363 0 6.78616 0C6.53869 0 6.30135 0.0946971 6.12636 0.263259C5.95137 0.431821 5.85306 0.660441 5.85306 0.898823V1.71594H0.933097C0.685624 1.71594 0.448287 1.81063 0.273298 1.97919C0.0983081 2.14776 0 2.37638 0 2.61476C0 2.85314 0.0983081 3.08176 0.273298 3.25032C0.448287 3.41889 0.685624 3.51358 0.933097 3.51358H9.29916C8.89538 4.61464 8.15187 6.35305 7.01774 7.9407C5.68553 6.23783 5.19056 5.13596 5.18675 5.12697C5.08922 4.90986 4.90676 4.73854 4.67896 4.65017C4.45115 4.56179 4.19636 4.56349 3.96984 4.6549C3.74333 4.74631 3.56336 4.92005 3.46897 5.13844C3.37457 5.35684 3.37336 5.60227 3.46561 5.82152C3.49021 5.8779 4.08272 7.22 5.70758 9.25053C5.7466 9.29915 5.7852 9.34654 5.8238 9.39393C4.15949 11.2059 2.52657 12.3298 1.84329 12.6926C1.62602 12.8068 1.46473 12.9994 1.39489 13.2281C1.32505 13.4568 1.35239 13.7029 1.4709 13.9122C1.58941 14.1214 1.78937 14.2768 2.0268 14.3441C2.26423 14.4114 2.51967 14.385 2.73694 14.2709C2.82856 14.2227 4.79824 13.1723 7.04743 10.774C8.00258 11.7578 8.65914 12.222 8.69858 12.2489C8.79783 12.3184 8.91031 12.3683 9.0296 12.3958C9.14889 12.4233 9.27265 12.4279 9.39378 12.4093C9.51492 12.3907 9.63106 12.3493 9.73556 12.2874C9.84006 12.2256 9.93087 12.1444 10.0028 12.0487V12.0491Z" fill="#353535"/>
</g>
</svg>
