<svg width="20" height="20" viewBox="0 0 20 20" fill="none" xmlns="http://www.w3.org/2000/svg">
<g id="Group">
<path id="Vector" fill-rule="evenodd" clip-rule="evenodd" d="M5.67607 0.057946C6.70593 0.0105356 7.03429 0 9.65767 0C12.281 0 12.6094 0.0114136 13.6384 0.057946C14.6674 0.104478 15.3697 0.268659 15.9843 0.506588C16.6279 0.749786 17.2117 1.12995 17.6946 1.62161C18.1863 2.10362 18.5655 2.68659 18.8079 3.33102C19.0467 3.9456 19.21 4.64797 19.2574 5.6752C19.3048 6.70681 19.3153 7.03517 19.3153 9.65767C19.3153 12.281 19.3039 12.6094 19.2574 13.6393C19.2109 14.6665 19.0467 15.3689 18.8079 15.9834C18.5655 16.6279 18.1856 17.2119 17.6946 17.6946C17.2117 18.1863 16.6279 18.5655 15.9843 18.8079C15.3697 19.0467 14.6674 19.21 13.6401 19.2574C12.6094 19.3048 12.281 19.3153 9.65767 19.3153C7.03429 19.3153 6.70593 19.3039 5.67607 19.2574C4.64885 19.2109 3.94647 19.0467 3.33189 18.8079C2.6874 18.5655 2.10346 18.1856 1.62073 17.6946C1.1294 17.2123 0.749184 16.6286 0.506588 15.9843C0.268659 15.3697 0.105356 14.6674 0.057946 13.6401C0.0105356 12.6085 0 12.2802 0 9.65767C0 7.03429 0.0114136 6.70593 0.057946 5.67695C0.104478 4.64797 0.268659 3.9456 0.506588 3.33102C0.749543 2.68666 1.13005 2.10301 1.62161 1.62073C2.10365 1.12951 2.687 0.749297 3.33102 0.506588C3.9456 0.268659 4.64797 0.105356 5.6752 0.057946H5.67607ZM13.5602 1.79633C12.5418 1.74979 12.2363 1.74014 9.65767 1.74014C7.07907 1.74014 6.77353 1.74979 5.75509 1.79633C4.81303 1.83935 4.30205 1.9965 3.9614 2.12908C3.511 2.30467 3.18879 2.51275 2.85077 2.85077C2.53035 3.16249 2.28376 3.54198 2.12908 3.9614C1.9965 4.30205 1.83935 4.81303 1.79633 5.75509C1.74979 6.77353 1.74014 7.07907 1.74014 9.65767C1.74014 12.2363 1.74979 12.5418 1.79633 13.5602C1.83935 14.5023 1.9965 15.0133 2.12908 15.3539C2.2836 15.7727 2.53031 16.1529 2.85077 16.4646C3.16245 16.785 3.54261 17.0317 3.9614 17.1863C4.30205 17.3188 4.81303 17.476 5.75509 17.519C6.77353 17.5655 7.07819 17.5752 9.65767 17.5752C12.2371 17.5752 12.5418 17.5655 13.5602 17.519C14.5023 17.476 15.0133 17.3188 15.3539 17.1863C15.8043 17.0107 16.1265 16.8026 16.4646 16.4646C16.785 16.1529 17.0317 15.7727 17.1863 15.3539C17.3188 15.0133 17.476 14.5023 17.519 13.5602C17.5655 12.5418 17.5752 12.2363 17.5752 9.65767C17.5752 7.07907 17.5655 6.77353 17.519 5.75509C17.476 4.81303 17.3188 4.30205 17.1863 3.9614C17.0107 3.511 16.8026 3.18879 16.4646 2.85077C16.1528 2.53037 15.7733 2.28378 15.3539 2.12908C15.0133 1.9965 14.5023 1.83935 13.5602 1.79633ZM8.42412 12.6349C9.11302 12.9216 9.88012 12.9603 10.5944 12.7444C11.3087 12.5284 11.9258 12.0711 12.3404 11.4507C12.755 10.8303 12.9413 10.0851 12.8676 9.34257C12.7938 8.60001 12.4645 7.90609 11.936 7.37933C11.5991 7.04261 11.1917 6.78478 10.7431 6.62441C10.2946 6.46404 9.81608 6.4051 9.34203 6.45186C8.86799 6.49862 8.4102 6.6499 8.00164 6.89481C7.59308 7.13972 7.2439 7.47217 6.97925 7.86823C6.71459 8.26429 6.54104 8.7141 6.47109 9.18528C6.40114 9.65646 6.43653 10.1373 6.57471 10.5932C6.71289 11.049 6.95043 11.4686 7.27022 11.8216C7.59001 12.1747 7.9841 12.4524 8.42412 12.6349ZM6.14754 6.14754C6.6085 5.68659 7.15573 5.32094 7.758 5.07147C8.36027 4.822 9.00578 4.6936 9.65767 4.6936C10.3096 4.6936 10.9551 4.822 11.5573 5.07147C12.1596 5.32094 12.7068 5.68659 13.1678 6.14754C13.6287 6.6085 13.9944 7.15573 14.2439 7.758C14.4933 8.36027 14.6217 9.00578 14.6217 9.65767C14.6217 10.3096 14.4933 10.9551 14.2439 11.5573C13.9944 12.1596 13.6287 12.7068 13.1678 13.1678C12.2368 14.0987 10.9742 14.6217 9.65767 14.6217C8.34111 14.6217 7.07849 14.0987 6.14754 13.1678C5.2166 12.2368 4.6936 10.9742 4.6936 9.65767C4.6936 8.34111 5.2166 7.07849 6.14754 6.14754ZM15.7227 5.43288C15.8369 5.32512 15.9284 5.19554 15.9916 5.05181C16.0549 4.90808 16.0886 4.75312 16.0909 4.59611C16.0932 4.43909 16.064 4.28322 16.0049 4.1377C15.9459 3.99219 15.8583 3.86 15.7472 3.74896C15.6362 3.63793 15.504 3.5503 15.3585 3.49126C15.213 3.43223 15.0571 3.40299 14.9001 3.40528C14.7431 3.40757 14.5881 3.44134 14.4444 3.50459C14.3006 3.56784 14.1711 3.65929 14.0633 3.77351C13.8538 3.99567 13.739 4.29074 13.7435 4.59611C13.7479 4.90147 13.8712 5.19308 14.0872 5.40903C14.3031 5.62498 14.5947 5.74827 14.9001 5.75272C15.2054 5.75717 15.5005 5.64244 15.7227 5.43288Z" fill="#353535"/>
</g>
</svg>
