<svg width="168" height="38" viewBox="0 0 168 38" fill="none" xmlns="http://www.w3.org/2000/svg">
<g id="logo">
<path id="Vector" d="M35.1386 37.4195C29.6982 34.6523 24.6248 32.1342 19.6126 29.4827C18.1968 28.7353 17.0737 28.6774 15.6229 29.456C10.5758 32.1742 5.44555 34.7368 0.149302 37.4595C0.149302 30.3013 0.149302 23.4411 0.149302 16.4386C1.70934 16.5943 2.4391 17.2527 2.41725 18.9299C2.34733 23.6502 2.39103 28.366 2.39103 33.4689C7.04928 31.0887 11.406 28.9444 15.6841 26.6354C17.0606 25.8924 18.1225 25.9013 19.4946 26.6309C23.7202 28.8821 28.0289 30.9775 32.3419 33.1485C33.4737 28.8865 33.1198 28.0857 29.5321 26.2483C20.3161 21.5281 11.1176 16.7678 1.87102 12.1098C0.50326 11.4203 -0.0604512 10.655 0.00509647 9.08459C0.127452 6.20618 0.040056 3.32331 0.040056 0.0889774C1.20243 0.649535 2.10262 1.06773 2.9897 1.51262C7.14979 3.62138 11.358 5.64117 15.4394 7.89675C17.0606 8.79097 18.2667 8.64416 19.818 7.81222C24.7603 5.16514 29.7725 2.66932 34.9813 0C34.9813 7.13599 34.9813 14.0406 34.9813 21.0076C33.4213 20.8385 32.709 20.1178 32.7396 18.4228C32.8226 13.7559 32.7702 9.08904 32.7702 4.12855C32.0273 4.43997 31.4505 4.63572 30.9086 4.916C27.0107 6.9091 23.1565 8.99117 19.2018 10.8597C18.3191 11.2779 16.9339 11.2912 16.0512 10.8864C12.3499 9.18247 8.75352 7.23831 5.11344 5.39648C4.35309 5.00943 3.56215 4.67576 2.42162 4.14635C2.42162 5.82357 2.21624 7.24276 2.50028 8.54628C2.66196 9.28034 3.52282 10.05 4.25696 10.4326C13.9012 15.442 23.5586 20.4248 33.2683 25.3052C34.7366 26.0437 35.2566 26.8934 35.1823 28.5173C35.0512 31.3156 35.1386 34.1317 35.1386 37.4195Z" fill="url(#paint0_linear_272_159)"/>
<g id="Group">
<path id="Vector_2" d="M59.3208 24.1812V18.5709C59.3208 17.7607 59.1707 17.1265 58.8705 16.673C58.5702 16.2194 58.1242 15.9948 57.537 15.9948C56.8305 15.9948 56.2609 16.2678 55.837 16.8139C55.4087 17.3599 55.1835 18.1262 55.157 19.1126V24.1856H52.9537V18.5753C52.9537 17.7651 52.8036 17.1309 52.5033 16.6774C52.2031 16.2238 51.7571 15.9992 51.1698 15.9992C50.4368 15.9992 49.8496 16.2854 49.4169 16.8579C48.9841 17.4304 48.7678 18.2363 48.7678 19.2755V24.19H46.5645V14.2025H48.7678V15.5588C49.3815 14.5196 50.3309 13.9999 51.6114 13.9999C53.1215 13.9999 54.1547 14.6605 54.7155 15.9772C54.9936 15.3519 55.4264 14.8675 56.0092 14.5196C56.5876 14.1717 57.2279 13.9999 57.9211 13.9999C59.0427 13.9999 59.9258 14.3787 60.566 15.1361C61.2063 15.8935 61.5286 16.9196 61.5286 18.2142V24.1856H59.3208V24.1812Z" fill="#282828"/>
<path id="Vector_3" d="M68.7744 24.3837C67.2775 24.3837 66.05 23.8949 65.0874 22.9173C64.1248 21.9397 63.6436 20.6979 63.6436 19.1918C63.6436 17.6858 64.116 16.444 65.0653 15.4664C66.0147 14.4887 67.2554 13.9999 68.792 13.9999C70.3419 13.9999 71.587 14.5372 72.5364 15.6073C73.4857 16.6774 73.9052 18.0557 73.7992 19.7335H65.8292C65.8557 20.5041 66.1516 21.1515 66.7123 21.6711C67.2731 22.1907 67.9884 22.4505 68.8538 22.4505C70.0814 22.4505 70.9247 21.9838 71.3751 21.0546H73.68C73.3709 22.0278 72.7836 22.8249 71.9182 23.4502C71.0484 24.0711 70.0019 24.3837 68.7744 24.3837ZM68.7346 15.8363C68.0149 15.8363 67.3967 16.0388 66.8801 16.444C66.3679 16.8491 66.0368 17.426 65.8866 18.1702H71.4325C71.2735 17.3996 70.9468 16.8139 70.4523 16.4219C69.9621 16.03 69.3881 15.8363 68.7346 15.8363Z" fill="#282828"/>
<path id="Vector_4" d="M80.591 28.5584C79.231 28.5584 78.1095 28.2237 77.2352 27.5588C76.3609 26.8938 75.8576 26.0263 75.7251 24.9606H77.8887C78.2772 26.1056 79.1957 26.6781 80.6528 26.6781C81.4387 26.6781 82.0922 26.4227 82.6044 25.9074C83.1166 25.3922 83.3772 24.6744 83.3772 23.7408V22.5606C83.0548 23.0142 82.6089 23.3885 82.0348 23.6792C81.4608 23.9742 80.8382 24.1195 80.1715 24.1195C78.8248 24.1195 77.6856 23.6307 76.7583 22.6531C75.8311 21.6755 75.3674 20.4733 75.3674 19.0465C75.3674 17.6374 75.8311 16.4396 76.7583 15.462C77.6856 14.4844 78.8248 13.9955 80.1715 13.9955C80.8382 13.9955 81.4608 14.1409 82.0348 14.4271C82.6089 14.7133 83.0548 15.0832 83.3772 15.5368V14.1981H85.5805V23.5647C85.5805 25.216 85.108 26.4623 84.1675 27.299C83.227 28.1357 82.0304 28.5584 80.591 28.5584ZM78.445 21.2351C79.019 21.8164 79.7255 22.1027 80.5689 22.1027C81.4123 22.1027 82.1187 21.812 82.6927 21.2351C83.2668 20.6583 83.5538 19.9273 83.5538 19.0465C83.5538 18.1658 83.2668 17.4392 82.6927 16.8579C82.1187 16.2766 81.4123 15.9904 80.5689 15.9904C79.7299 15.9904 79.019 16.281 78.445 16.8579C77.871 17.4348 77.584 18.1658 77.584 19.0465C77.584 19.9273 77.871 20.6583 78.445 21.2351Z" fill="#282828"/>
<path id="Vector_5" d="M92.6445 24.3838C91.2845 24.3838 90.1365 23.8773 89.2092 22.8645C88.282 21.8517 87.8184 20.6274 87.8184 19.1875C87.8184 17.7475 88.282 16.5232 89.2092 15.5148C90.1365 14.502 91.2801 13.9955 92.6445 13.9955C93.3245 13.9955 93.9515 14.1453 94.5255 14.4447C95.0995 14.7442 95.5411 15.1053 95.8457 15.5324V14.1937H98.0491V24.1812H95.8457V22.8425C95.5367 23.2696 95.0995 23.6307 94.5255 23.9302C93.9515 24.234 93.3245 24.3838 92.6445 24.3838ZM90.9004 21.4685C91.4612 22.0806 92.1765 22.3889 93.0419 22.3889C93.9073 22.3889 94.6227 22.0806 95.1834 21.4685C95.7442 20.8564 96.0224 20.099 96.0224 19.1919C96.0224 18.2847 95.7442 17.5273 95.1834 16.9152C94.6227 16.3031 93.9073 15.9948 93.0419 15.9948C92.1765 15.9948 91.4612 16.3031 90.9004 16.9152C90.3396 17.5273 90.057 18.2847 90.057 19.1919C90.0614 20.0946 90.3396 20.852 90.9004 21.4685Z" fill="#282828"/>
<path id="Vector_6" d="M102.377 24.1812V12.2385H98.2532V10.0014H108.868V12.2385H104.722V24.1812H102.377Z" fill="#282828"/>
<path id="Vector_7" d="M113.331 24.3837C111.834 24.3837 110.606 23.8949 109.644 22.9173C108.681 21.9397 108.2 20.6979 108.2 19.1918C108.2 17.6858 108.672 16.444 109.622 15.4664C110.571 14.4887 111.812 13.9999 113.348 13.9999C114.898 13.9999 116.143 14.5372 117.093 15.6073C118.042 16.6774 118.462 18.0557 118.356 19.7335H110.386C110.412 20.5041 110.708 21.1515 111.269 21.6711C111.829 22.1907 112.545 22.4505 113.41 22.4505C114.638 22.4505 115.481 21.9838 115.931 21.0546H118.236C117.927 22.0278 117.34 22.8249 116.475 23.4502C115.605 24.0711 114.558 24.3837 113.331 24.3837ZM113.291 15.8363C112.571 15.8363 111.953 16.0388 111.437 16.444C110.924 16.8491 110.593 17.426 110.443 18.1702H115.989C115.83 17.3996 115.503 16.8139 115.009 16.4219C114.519 16.03 113.945 15.8363 113.291 15.8363Z" fill="#282828"/>
<path id="Vector_8" d="M126.847 24.1812L124.144 20.8036L121.442 24.1812H118.758L122.745 19.2095L118.978 14.1981H121.601L124.122 17.5537L126.644 14.1981H129.289L125.522 19.2095L129.509 24.1812H126.847Z" fill="#282828"/>
<path id="Vector_9" d="M131.094 24.1812V14.1937H133.298V15.5501C133.925 14.5108 134.94 13.9912 136.34 13.9912C137.501 13.9912 138.429 14.3699 139.122 15.1273C139.815 15.8847 140.164 16.8976 140.164 18.1614V24.1724H137.965V18.5313C137.965 17.7343 137.78 17.109 137.404 16.6642C137.029 16.2194 136.521 15.9948 135.881 15.9948C135.121 15.9948 134.499 16.2811 134.018 16.8536C133.536 17.426 133.298 18.2319 133.298 19.2712V24.1856H131.094V24.1812Z" fill="#282828"/>
<path id="Vector_10" d="M144.089 12.0183C143.687 12.0183 143.343 11.8774 143.047 11.5912C142.751 11.3049 142.605 10.957 142.605 10.5431C142.605 10.1424 142.751 9.79888 143.047 9.51264C143.343 9.2264 143.687 9.08109 144.089 9.08109C144.504 9.08109 144.849 9.2264 145.131 9.51264C145.414 9.79888 145.551 10.1424 145.551 10.5431C145.551 10.957 145.409 11.3049 145.131 11.5912C144.853 11.8774 144.504 12.0183 144.089 12.0183ZM142.99 24.1812V14.1937H145.193V24.1812H142.99Z" fill="#282828"/>
<path id="Vector_11" d="M155.146 24.1812L150.359 19.368V24.1812H148.156V9.19998H150.359V17.9897L154.183 14.1937H156.965L152.501 18.6458L157.967 24.1768H155.146V24.1812Z" fill="#282828"/>
<path id="Vector_12" d="M162.595 24.3838C161.235 24.3838 160.087 23.8773 159.16 22.8645C158.233 21.8517 157.769 20.6274 157.769 19.1875C157.769 17.7475 158.233 16.5232 159.16 15.5148C160.087 14.502 161.231 13.9955 162.595 13.9955C163.275 13.9955 163.902 14.1453 164.476 14.4447C165.05 14.7442 165.492 15.1053 165.796 15.5324V14.1937H168V24.1812H165.796V22.8425C165.487 23.2696 165.05 23.6307 164.476 23.9302C163.902 24.234 163.275 24.3838 162.595 24.3838ZM160.851 21.4685C161.412 22.0806 162.127 22.3889 162.993 22.3889C163.858 22.3889 164.573 22.0806 165.134 21.4685C165.695 20.8564 165.973 20.099 165.973 19.1919C165.973 18.2847 165.695 17.5273 165.134 16.9152C164.573 16.3031 163.858 15.9948 162.993 15.9948C162.127 15.9948 161.412 16.3031 160.851 16.9152C160.29 17.5273 160.008 18.2847 160.008 19.1919C160.012 20.0946 160.29 20.852 160.851 21.4685Z" fill="#282828"/>
</g>
</g>
<defs>
<linearGradient id="paint0_linear_272_159" x1="5.22959" y1="9.3041" x2="33.7221" y2="30.3043" gradientUnits="userSpaceOnUse">
<stop stop-color="#FFDF00"/>
<stop offset="0.0517" stop-color="#FED700"/>
<stop offset="0.2345" stop-color="#FBBF12"/>
<stop offset="0.4205" stop-color="#F9AC19"/>
<stop offset="0.6085" stop-color="#F89E1C"/>
<stop offset="0.8" stop-color="#F8961D"/>
<stop offset="1" stop-color="#F7941D"/>
</linearGradient>
</defs>
</svg>
