<svg width="15" height="12" viewBox="0 0 15 12" fill="none" xmlns="http://www.w3.org/2000/svg">
<path id="Vector" d="M15 1.42342C14.4484 1.66396 13.8558 1.82649 13.2328 1.89995C13.8756 1.52145 14.3565 0.925741 14.5858 0.223974C13.9819 0.576974 13.3209 0.825448 12.6317 0.958593C12.1682 0.471576 11.5543 0.148773 10.8852 0.0403016C10.2162 -0.06817 9.52948 0.0437586 8.93172 0.35871C8.33395 0.673661 7.85857 1.17401 7.57938 1.78209C7.30018 2.39016 7.2328 3.07193 7.38769 3.72154C6.16402 3.66108 4.96694 3.34809 3.87415 2.80288C2.78135 2.25767 1.81726 1.49244 1.04444 0.556828C0.78019 1.0054 0.628248 1.52549 0.628248 2.07938C0.627953 2.578 0.75273 3.069 0.991508 3.50879C1.23029 3.94858 1.57568 4.32357 1.99705 4.60049C1.50837 4.58519 1.03048 4.45524 0.603145 4.22148V4.26048C0.603095 4.95983 0.848916 5.63765 1.2989 6.17894C1.74888 6.72023 2.3753 7.09165 3.07188 7.23017C2.61855 7.3509 2.14327 7.36869 1.68193 7.28218C1.87847 7.88392 2.26129 8.41013 2.77682 8.78712C3.29235 9.16412 3.91477 9.37303 4.55695 9.38462C3.46681 10.2268 2.12051 10.6836 0.734608 10.6816C0.489109 10.6816 0.243819 10.6675 0 10.6393C1.40677 11.5294 3.04435 12.0018 4.71681 12C10.3783 12 13.4733 7.38554 13.4733 3.38349C13.4733 3.25347 13.47 3.12215 13.4641 2.99213C14.0661 2.56369 14.5857 2.03315 14.9987 1.42537L15 1.42342Z" fill="#353535"/>
</svg>
